<?xml version="1.0" standalone="no"?>
<!DOCTYPE svg PUBLIC "-//W3C//DTD SVG 20010904//EN"
 "http://www.w3.org/TR/2001/REC-SVG-20010904/DTD/svg10.dtd">
<svg version="1.0" xmlns="http://www.w3.org/2000/svg"
 width="150.000000pt" height="150.000000pt" viewBox="0 0 150.000000 150.000000"
 preserveAspectRatio="xMidYMid meet">
<metadata>
Created by potrace 1.11, written by Peter Selinger 2001-2013
</metadata>
<g transform="translate(0.000000,150.000000) scale(0.100000,-0.100000)"
fill="#000000" stroke="none">
<path d="M641 1478 c-25 -4 -47 -11 -50 -15 -12 -15 -51 -33 -74 -33 -24 0
-64 -37 -139 -130 -20 -25 -52 -63 -72 -84 -40 -45 -44 -67 -21 -144 17 -55
72 -119 127 -148 30 -15 32 -15 45 2 7 10 13 29 14 43 0 14 4 35 8 45 6 17 9
15 20 -12 8 -18 17 -32 22 -32 5 0 9 -22 9 -48 0 -36 -5 -54 -20 -67 -11 -10
-34 -41 -52 -69 -18 -28 -35 -53 -39 -56 -3 -3 -19 -30 -35 -60 -28 -54 -29
-58 -34 -258 l-5 -203 -59 -59 c-50 -49 -58 -62 -52 -84 8 -31 31 -44 93 -52
40 -6 46 -4 36 7 -7 7 -13 16 -13 20 0 3 34 24 76 45 84 43 95 53 65 61 -12 3
-21 9 -21 13 0 8 44 27 75 32 23 4 33 37 14 49 -15 9 -57 2 -77 -14 -26 -21
-11 12 17 35 38 32 56 67 42 81 -7 7 -18 5 -35 -7 -30 -19 -36 -4 -6 17 11 8
17 16 15 19 -3 3 8 17 25 32 34 28 32 51 -3 40 -12 -4 -29 -9 -37 -11 -8 -3
-1 4 15 16 34 24 61 27 68 9 3 -7 6 -1 6 13 1 18 -6 29 -23 37 -18 8 -23 16
-19 31 4 17 1 21 -21 21 -14 0 -26 3 -26 8 0 17 33 54 56 62 28 11 32 30 6 30
-24 0 -61 30 -45 36 7 3 9 12 6 20 -6 16 45 100 55 90 3 -4 -5 -20 -17 -37
-44 -59 1 -108 54 -59 20 18 22 27 14 47 -5 14 -8 28 -5 30 8 8 46 -55 46 -76
0 -32 14 -25 34 15 9 20 19 34 22 31 4 -3 -1 -20 -10 -38 -16 -32 -21 -59 -10
-59 3 0 26 16 50 36 47 39 61 34 19 -6 -32 -30 -20 -43 26 -28 26 7 48 8 75 0
26 -7 31 -10 16 -11 -15 -1 -26 -10 -33 -27 -10 -28 -4 -64 12 -64 5 0 9 -4 9
-9 0 -5 -10 -7 -22 -3 -17 4 -20 2 -15 -11 4 -10 2 -17 -4 -17 -6 0 -7 -14 -3
-35 5 -31 4 -35 -14 -35 -14 0 -24 10 -31 32 -12 35 -27 29 -33 -12 -4 -26 -7
-27 -45 -16 -16 5 -25 2 -33 -13 -9 -17 -8 -20 5 -15 8 4 15 1 15 -6 0 -6 4
-8 10 -5 5 3 22 -1 37 -8 20 -11 42 -13 76 -7 64 9 64 -12 0 -35 -131 -48
-129 -55 13 -55 117 0 129 -10 56 -45 -23 -11 -42 -23 -42 -27 0 -7 51 -13 73
-9 96 17 127 7 70 -23 l-28 -14 30 -7 c39 -9 75 -26 75 -37 0 -5 -11 -6 -25
-2 -32 8 -33 -10 -1 -31 18 -12 24 -24 23 -51 -1 -45 16 -56 72 -49 61 7 81
28 81 81 0 42 -1 44 -41 55 -41 13 -41 13 -36 52 3 22 10 43 15 46 5 3 19 32
30 64 31 83 33 224 4 290 -31 69 -52 63 -52 -15 -1 -71 -13 -145 -26 -158 -5
-5 -9 22 -10 63 0 98 -40 212 -110 318 -68 104 -77 149 -42 207 l24 41 25 -32
c14 -18 38 -38 52 -46 24 -13 29 -12 47 4 12 11 20 31 20 49 0 17 12 48 26 69
28 42 34 88 13 109 -8 8 -34 28 -59 45 -66 46 -126 113 -141 158 -8 22 -18 43
-23 46 -22 16 -230 28 -295 17z"/>
<path d="M620 621 c0 -23 28 -48 39 -35 13 13 -6 54 -24 54 -8 0 -15 -8 -15
-19z"/>
<path d="M615 569 c-4 -6 -5 -12 -2 -15 2 -3 7 2 10 11 7 17 1 20 -8 4z"/>
<path d="M645 542 c0 -14 -6 -27 -14 -30 -10 -3 -12 0 -8 12 4 10 1 16 -8 16
-8 0 -15 -9 -15 -21 0 -32 98 -61 108 -30 3 10 -3 12 -27 6 -20 -4 -31 -3 -31
4 0 6 9 11 19 11 37 0 35 25 -4 46 -18 10 -21 9 -20 -14z"/>
<path d="M710 560 c0 -16 41 -33 52 -22 6 6 7 15 4 21 -9 14 -56 15 -56 1z"/>
</g>
</svg>
